<svg width="32" height="32" viewBox="0 0 32 32" fill="none" xmlns="http://www.w3.org/2000/svg">
<g clip-path="url(#clip0)">
<path d="M18.3276 1.49801C18.3276 0.255109 19.8782 -0.311788 20.6799 0.638027L30.7351 12.5515C31.5473 13.5137 31.9928 14.7323 31.9928 15.9914V30.4692C31.9928 31.716 30.4342 32.2807 29.6356 31.3233L19.3003 18.934C18.6718 18.1807 18.3276 17.2307 18.3276 16.2497V1.49801Z" fill="#82A7FF"/>
<path d="M9.0813 1.49801C9.0813 0.255109 10.6319 -0.311788 11.4336 0.638027L21.4888 12.5515C22.3009 13.5137 22.7464 14.7323 22.7464 15.9914V30.4692C22.7464 31.716 21.1879 32.2807 20.3892 31.3233L10.0539 18.934C9.42551 18.1807 9.0813 17.2307 9.0813 16.2497V1.49801Z" fill="#3A74FF"/>
<path d="M-0.00732422 1.49801C-0.00732422 0.255109 1.54326 -0.311788 2.34493 0.638027L12.4002 12.5515C13.2123 13.5137 13.6578 14.7323 13.6578 15.9914V30.4692C13.6578 31.716 12.0993 32.2807 11.3006 31.3233L0.965326 18.934C0.336884 18.1807 -0.00732422 17.2307 -0.00732422 16.2497V1.49801Z" fill="#0144E4"/>
</g>
<defs>
<clipPath id="clip0">
<rect width="32" height="32" fill="white"/>
</clipPath>
</defs>
</svg>
